<?xml version="1.0" standalone="no"?>
<!DOCTYPE svg PUBLIC "-//W3C//DTD SVG 20010904//EN"
 "http://www.w3.org/TR/2001/REC-SVG-20010904/DTD/svg10.dtd">
<svg version="1.0" xmlns="http://www.w3.org/2000/svg"
 width="288.000000pt" height="96.000000pt" viewBox="0 0 288.000000 96.000000"
 preserveAspectRatio="xMidYMid meet">

<g transform="translate(0.000000,96.000000) scale(0.100000,-0.100000)"
fill="#000000" stroke="none">
<path d="M120 785 l0 -54 98 -3 97 -3 3 -297 2 -298 65 0 65 0 0 300 0 300
100 0 100 0 0 55 0 55 -265 0 -265 0 0 -55z"/>
<path d="M2120 735 l0 -65 -35 0 -35 0 0 -49 c0 -49 1 -50 33 -53 l32 -3 5
-180 c6 -202 12 -224 75 -251 36 -15 102 -18 154 -8 30 6 31 8 31 58 l0 51
-57 0 c-79 0 -84 11 -80 190 l2 140 63 3 62 3 0 49 0 50 -65 0 -65 0 0 65 0
65 -60 0 -60 0 0 -65z"/>
<path d="M875 665 c-16 -9 -42 -30 -57 -48 l-27 -32 -1 43 0 42 -60 0 -60 0 0
-270 0 -271 63 3 62 3 5 165 c3 110 9 173 18 188 19 34 72 62 115 62 l37 0 0
65 0 65 -32 0 c-18 0 -46 -7 -63 -15z"/>
<path d="M1179 671 c-114 -35 -179 -132 -179 -269 0 -37 5 -84 10 -104 15 -53
68 -119 120 -148 62 -34 194 -36 255 -3 88 47 127 114 133 229 6 106 -15 171
-73 229 -63 64 -178 92 -266 66z m156 -123 c38 -29 55 -76 55 -148 0 -112 -45
-170 -131 -170 -82 0 -129 62 -129 171 0 110 46 169 129 169 34 0 56 -6 76
-22z"/>
<path d="M1708 671 c-82 -27 -128 -83 -128 -158 0 -82 59 -130 192 -158 86
-19 118 -37 118 -69 0 -73 -139 -88 -232 -26 l-43 29 -32 -37 c-18 -20 -31
-41 -29 -47 1 -5 32 -25 69 -44 123 -63 283 -52 357 24 33 34 35 40 35 105 0
59 -3 72 -25 96 -32 35 -89 60 -170 74 -79 14 -110 32 -110 65 0 57 100 74
186 30 l49 -25 35 36 c34 34 35 35 15 51 -64 50 -213 78 -287 54z"/>
<path d="M2479 277 c-21 -16 -39 -51 -39 -77 0 -30 53 -80 85 -80 38 0 85 50
85 90 0 61 -83 104 -131 67z"/>
</g>
</svg>
